<svg width="28" height="28" viewBox="0 0 28 28" fill="currentColor" xmlns="http://www.w3.org/2000/svg">
<g clip-path="url(#clip0_34_1220)">
<path d="M23.2289 16.7991H16.0336V22.978H23.2289V16.7991Z" fill="currentColor"/>
<path d="M13.2175 16.8926H4.77112V17.8311H13.2175V16.8926Z" fill="currentColor"/>
<path d="M13.2175 21.946H4.77112V22.8845H13.2175V21.946Z" fill="currentColor"/>
<path d="M13.2175 19.4195H4.77112V20.3581H13.2175V19.4195Z" fill="currentColor"/>
<path d="M22.7734 0.000213623H5.22703C2.33991 0.00070581 0.000875 2.34018 0 5.22686V21.8346C0.00136719 25.2396 2.7597 27.9988 6.16558 27.9998H21.8349C25.2402 27.9988 27.9991 25.24 28 21.8346V5.22686C27.9996 2.34018 25.66 0.00070581 22.7734 0.000213623ZM25.419 21.8346C25.4186 22.8272 25.0194 23.7172 24.3691 24.3689C23.7175 25.0191 22.8275 25.4183 21.8349 25.4187H6.16558C5.173 25.4183 4.28252 25.0191 3.63092 24.3689C2.98058 23.7172 2.58191 22.8272 2.58103 21.8346V6.49118H25.4191V21.8346H25.419Z" fill="currentColor"/>
<path d="M4.86496 14.6512H6.75622C7.83411 14.6512 8.48664 14.1819 8.48664 13.1994C8.48664 12.6059 8.14938 12.1949 7.81945 12.0702V12.0555C8.14943 11.8722 8.3987 11.535 8.3987 10.9928C8.3987 10.2005 7.89279 9.66568 6.80806 9.66568H4.86496C4.82143 9.66568 4.79211 9.69499 4.79211 9.73896V14.5774C4.79211 14.6218 4.82143 14.6512 4.86496 14.6512ZM5.87 10.5817C5.87 10.5529 5.88373 10.5378 5.91397 10.5378H6.67654C7.08669 10.5378 7.32868 10.7504 7.32868 11.1166C7.32868 11.4837 7.08669 11.7036 6.67654 11.7036H5.91397C5.88373 11.7036 5.87 11.689 5.87 11.6596V10.5817ZM5.87 12.5757C5.87 12.5468 5.88373 12.5322 5.91397 12.5322H6.73429C7.17512 12.5322 7.40929 12.7741 7.40929 13.1559C7.40929 13.544 7.17512 13.7791 6.73429 13.7791H5.91397C5.88373 13.7791 5.87 13.764 5.87 13.7347V12.5757Z" fill="currentColor"/>
<path d="M9.92666 14.6512H13.1753C13.2188 14.6512 13.2482 14.6219 13.2482 14.5774V13.764C13.2482 13.7196 13.2188 13.6907 13.1753 13.6907H10.9756C10.9458 13.6907 10.9316 13.676 10.9316 13.6463V9.73902C10.9316 9.69505 10.9027 9.66574 10.8583 9.66574H9.9266C9.88258 9.66574 9.85376 9.69505 9.85376 9.73902V14.5775C9.85376 14.6219 9.88264 14.6512 9.92666 14.6512Z" fill="currentColor"/>
<path d="M16.0074 14.7314C16.8804 14.7314 17.5692 14.3286 17.8259 13.522C17.9358 13.1774 17.9647 12.8987 17.9647 12.1582C17.9647 11.4176 17.9358 11.139 17.8259 10.7943C17.5692 9.98828 16.8804 9.58496 16.0074 9.58496C15.1348 9.58496 14.4457 9.98828 14.1895 10.7943C14.079 11.139 14.0497 11.4176 14.0497 12.1582C14.0497 12.8987 14.079 13.1774 14.1895 13.522C14.4456 14.3286 15.1348 14.7314 16.0074 14.7314ZM15.2228 11.0877C15.3328 10.7431 15.5973 10.5378 16.0074 10.5378C16.418 10.5378 16.682 10.7431 16.7919 11.0877C16.8506 11.2641 16.8725 11.5051 16.8725 12.1582C16.8725 12.8103 16.8506 13.0528 16.7919 13.2283C16.682 13.5734 16.418 13.7791 16.0074 13.7791C15.5972 13.7791 15.3328 13.5733 15.2228 13.2283C15.1647 13.0528 15.1422 12.8103 15.1422 12.1582C15.1422 11.5051 15.1647 11.2641 15.2228 11.0877Z" fill="currentColor"/>
<path d="M21.2166 14.7314C22.0961 14.7314 22.7853 14.2845 23.035 13.4848C23.1225 13.214 23.1588 12.8034 23.1588 12.3635V11.9524C23.1588 11.9093 23.1295 11.8795 23.086 11.8795H21.3706C21.3262 11.8795 21.2969 11.9093 21.2969 11.9524V12.6572C21.2969 12.7007 21.3262 12.73 21.3706 12.73H22.0447C22.074 12.73 22.0887 12.7452 22.0887 12.7741C22.0887 12.9862 22.0667 13.1406 22.0301 13.2658C21.9273 13.5953 21.6047 13.7791 21.2308 13.7791C20.7983 13.7791 20.5265 13.5733 20.4165 13.2282C20.3583 13.0527 20.3363 12.8103 20.3363 12.1582C20.3363 11.5051 20.3583 11.271 20.4165 11.095C20.5265 10.7504 20.7909 10.5377 21.2166 10.5377C21.6268 10.5377 21.8756 10.7137 22.074 11.051C22.0887 11.0876 22.1254 11.1023 22.1772 11.0876L22.9613 10.7577C23.0048 10.7357 23.0131 10.6917 22.9906 10.6473C22.7555 10.046 22.1474 9.58496 21.2166 9.58496C20.3289 9.58496 19.6397 9.98828 19.3831 10.7943C19.273 11.139 19.2433 11.4176 19.2433 12.1582C19.2433 12.8987 19.2731 13.1774 19.3831 13.522C19.6397 14.3286 20.329 14.7314 21.2166 14.7314Z" fill="currentColor"/>
</g>
<defs>
<clipPath id="clip0_34_1220">
<rect width="28" height="28" fill="currentColor"/>
</clipPath>
</defs>
</svg>
