<svg width="28" height="28" viewBox="0 0 28 28" fill="none" xmlns="http://www.w3.org/2000/svg">
<path d="M3.84183 24.1582C3.62311 23.9394 3.50024 23.6427 3.50024 23.3333C3.50024 23.024 3.62311 22.7273 3.84183 22.5085L22.5085 3.84183C22.6161 3.7304 22.7448 3.64152 22.8872 3.58037C23.0295 3.51923 23.1826 3.48705 23.3375 3.4857C23.4924 3.48435 23.6461 3.51387 23.7894 3.57253C23.9328 3.6312 24.0631 3.71782 24.1726 3.82737C24.2822 3.93691 24.3688 4.06717 24.4275 4.21055C24.4861 4.35393 24.5156 4.50755 24.5143 4.66246C24.5129 4.81737 24.4808 4.97046 24.4196 5.1128C24.3585 5.25514 24.2696 5.38387 24.1582 5.49149L5.49149 24.1582C5.27271 24.3769 4.97602 24.4997 4.66666 24.4997C4.3573 24.4997 4.06061 24.3769 3.84183 24.1582Z" fill="white" stroke="white"/>
</svg>
