<svg width="32" height="32" viewBox="0 0 32 32" fill="none" xmlns="http://www.w3.org/2000/svg">
<g clip-path="url(#clip0_34_1289)">
<path d="M17.0831 0.0327148C25.2022 0.0327148 31.8451 6.67561 31.8451 14.7947V17.1011C31.8451 25.2202 25.2021 31.8631 17.0831 31.8631H14.7767C6.65757 31.8631 0.014679 25.2202 0.014679 17.1011V14.7947C0.014679 6.67561 6.65757 0.0327148 14.7767 0.0327148H17.0831ZM16.2201 8.03298L16.0147 8.03271C14.3044 8.03271 12.5942 8.08924 12.5942 8.08924C10.0962 8.08924 8.07121 10.1143 8.07121 12.6122C8.07121 12.6122 8.01929 14.0808 8.01497 15.657L8.01468 15.8631C8.01468 17.628 8.07121 19.4532 8.07121 19.4532C8.07121 21.9512 10.0962 23.9762 12.5942 23.9762C12.5942 23.9762 14.1932 24.0327 15.8451 24.0327C17.61 24.0327 19.4917 23.9762 19.4917 23.9762C21.9897 23.9762 23.9582 22.0077 23.9582 19.5098C23.9582 19.5098 24.0147 17.7051 24.0147 15.9762L24.0137 15.5705C24.006 14.0193 23.9581 12.5557 23.9581 12.5557C23.9581 10.0577 21.9897 8.08924 19.4917 8.08924C19.4917 8.08924 17.8634 8.03715 16.2201 8.03298ZM16.0147 9.47268C17.4171 9.47268 19.2152 9.51905 19.2152 9.51905C21.2636 9.51905 22.5283 10.7838 22.5283 12.8321C22.5283 12.8321 22.5747 14.5995 22.5747 15.9863C22.5747 17.404 22.5283 19.2332 22.5283 19.2332C22.5283 21.2816 21.2636 22.5463 19.2152 22.5463C19.2152 22.5463 17.6251 22.5852 16.2453 22.5917L15.8756 22.5926C14.5211 22.5926 12.8706 22.5463 12.8706 22.5463C10.8223 22.5463 9.50106 21.225 9.50106 19.1767C9.50106 19.1767 9.45468 17.3408 9.45468 15.8936C9.45468 14.5391 9.50106 12.8321 9.50106 12.8321C9.50106 10.7838 10.8224 9.51905 12.8706 9.51905C12.8706 9.51905 14.6122 9.47268 16.0147 9.47268ZM16.0146 11.9346C13.7513 11.9346 11.9166 13.7694 11.9166 16.0327C11.9166 18.2959 13.7513 20.1307 16.0146 20.1307C18.2779 20.1307 20.1127 18.2959 20.1127 16.0327C20.1127 13.7694 18.2779 11.9346 16.0146 11.9346ZM16.0146 13.366C17.4874 13.366 18.6813 14.5599 18.6813 16.0327C18.6813 17.5054 17.4874 18.6993 16.0146 18.6993C14.5419 18.6993 13.348 17.5054 13.348 16.0327C13.348 14.5599 14.5419 13.366 16.0146 13.366ZM20.3088 10.7974C19.7619 10.7974 19.3186 11.2429 19.3186 11.7925C19.3186 12.3421 19.7619 12.7876 20.3088 12.7876C20.8556 12.7876 21.2989 12.3421 21.2989 11.7925C21.2989 11.2429 20.8556 10.7974 20.3088 10.7974Z" fill="#AC6BC3"/>
</g>
<defs>
<clipPath id="clip0_34_1289">
<rect width="32" height="32" fill="white"/>
</clipPath>
</defs>
</svg>
