<svg width="28" height="28" viewBox="0 0 28 28" fill="none" xmlns="http://www.w3.org/2000/svg">
<path d="M15.75 2.33333C15.75 2.33333 18.4724 2.58081 21.9372 6.04564C25.402 9.51046 25.6495 12.2328 25.6495 12.2328" stroke="white" stroke-width="1.5" stroke-linecap="round"/>
<path d="M16.5748 6.45824C16.5748 6.45824 17.7298 6.78823 19.4622 8.52064C21.1946 10.2531 21.5246 11.408 21.5246 11.408" stroke="white" stroke-width="1.5" stroke-linecap="round"/>
<path d="M18.2519 18.1343L18.7833 17.5749L17.5145 16.3697L16.983 16.9291L18.2519 18.1343ZM20.5318 17.3393L22.7607 18.6223L23.6337 17.1057L21.4048 15.8227L20.5318 17.3393ZM23.1909 21.2822L21.5335 23.0271L22.8024 24.2322L24.4597 22.4874L23.1909 21.2822ZM20.5364 23.5861C18.8622 23.7515 14.4938 23.6104 9.75234 18.6185L8.48349 19.8236C13.651 25.2642 18.5804 25.5377 20.7082 25.3277L20.5364 23.5861ZM9.75234 18.6185C5.2302 13.8574 4.47165 9.84148 4.37711 8.08002L2.62963 8.17381C2.74542 10.3312 3.66146 14.747 8.48349 19.8236L9.75234 18.6185ZM11.3569 10.8752L11.6915 10.5229L10.4227 9.31769L10.0881 9.66998L11.3569 10.8752ZM11.9544 6.1368L10.4833 4.05606L9.05433 5.06636L10.5255 7.14708L11.9544 6.1368ZM5.50393 3.60748L3.67273 5.53538L4.94158 6.74058L6.77278 4.81268L5.50393 3.60748ZM10.7225 10.2726C10.0881 9.66998 10.0873 9.67083 10.0864 9.67168C10.0862 9.67198 10.0853 9.67285 10.0848 9.67343C10.0837 9.67462 10.0826 9.67582 10.0814 9.67706C10.0791 9.67953 10.0767 9.68211 10.0743 9.68481C10.0694 9.69018 10.0642 9.69601 10.0587 9.70228C10.0478 9.71484 10.0358 9.72919 10.023 9.74539C9.99737 9.7778 9.96836 9.81763 9.93792 9.86518C9.87689 9.96057 9.81069 10.0862 9.75464 10.2437C9.64065 10.564 9.57854 10.9882 9.65616 11.518C9.80865 12.5588 10.4906 13.9585 12.2725 15.8345L13.5414 14.6293C11.8758 12.8757 11.4655 11.7957 11.3877 11.2643C11.3501 11.0079 11.3883 10.8728 11.4034 10.8304C11.4119 10.8066 11.4174 10.7999 11.412 10.8084C11.4093 10.8125 11.4041 10.8203 11.3953 10.8314C11.3909 10.837 11.3855 10.8434 11.3792 10.8507C11.376 10.8544 11.3726 10.8582 11.3689 10.8623C11.367 10.8644 11.3651 10.8664 11.3631 10.8686C11.3621 10.8697 11.3611 10.8707 11.3601 10.8718C11.3595 10.8724 11.3588 10.8732 11.3585 10.8735C11.3577 10.8743 11.3569 10.8752 10.7225 10.2726ZM12.2725 15.8345C14.0492 17.705 15.391 18.4403 16.4148 18.6066C16.9401 18.6919 17.3654 18.6237 17.6874 18.4968C17.8447 18.4347 17.9692 18.3618 18.0627 18.2955C18.1093 18.2624 18.1482 18.231 18.1795 18.2036C18.1952 18.1898 18.209 18.177 18.221 18.1653C18.2271 18.1596 18.2327 18.154 18.2378 18.1489C18.2404 18.1463 18.2428 18.1438 18.2451 18.1413C18.2463 18.1401 18.2475 18.139 18.2486 18.1378C18.2492 18.1372 18.25 18.1363 18.2503 18.1361C18.2511 18.1351 18.2519 18.1343 17.6175 17.5317C16.983 16.9291 16.9839 16.9283 16.9847 16.9275C16.9849 16.9272 16.9857 16.9263 16.9862 16.9258C16.9872 16.9247 16.9883 16.9237 16.9893 16.9226C16.9914 16.9205 16.9934 16.9184 16.9953 16.9164C16.9993 16.9126 17.003 16.9088 17.0065 16.9055C17.0135 16.8987 17.0199 16.8929 17.0255 16.888C17.0366 16.8782 17.0449 16.8719 17.0502 16.8681C17.0612 16.8603 17.06 16.863 17.0452 16.8688C17.0227 16.8777 16.9167 16.9151 16.6953 16.8792C16.2256 16.8029 15.2123 16.3884 13.5414 14.6293L12.2725 15.8345ZM10.4833 4.05606C9.30073 2.38355 6.93448 2.10138 5.50393 3.60748L6.77278 4.81268C7.38276 4.17049 8.45659 4.22093 9.05433 5.06636L10.4833 4.05606ZM4.37711 8.08002C4.35211 7.61417 4.55495 7.14762 4.94158 6.74058L3.67273 5.53538C3.04757 6.19356 2.57241 7.10786 2.62963 8.17381L4.37711 8.08002ZM21.5335 23.0271C21.208 23.3698 20.8675 23.5535 20.5364 23.5861L20.7082 25.3277C21.5798 25.2416 22.2852 24.7768 22.8024 24.2322L21.5335 23.0271ZM11.6915 10.5229C12.8204 9.33443 12.9003 7.47457 11.9544 6.1368L10.5255 7.14708C11.018 7.84367 10.9425 8.77044 10.4227 9.31769L11.6915 10.5229ZM22.7607 18.6223C23.7183 19.1736 23.9058 20.5296 23.1909 21.2822L24.4597 22.4874C25.9821 20.8845 25.5388 18.2022 23.6337 17.1057L22.7607 18.6223ZM18.7833 17.5749C19.233 17.1015 19.9337 16.9951 20.5318 17.3393L21.4048 15.8227C20.1232 15.085 18.5338 15.2965 17.5145 16.3697L18.7833 17.5749Z" fill="white"/>
</svg>
