<svg width="28" height="28" viewBox="0 0 28 28" fill="none" xmlns="http://www.w3.org/2000/svg">
<g clip-path="url(#clip0_34_1240)">
<path d="M14 2.33333C20.4433 2.33333 25.6667 7.55667 25.6667 14C25.6667 20.4433 20.4433 25.6667 14 25.6667C11.9424 25.6667 10.0066 25.1331 8.32642 24.1963L7.97034 23.9895L4.43305 25.0299C3.58093 25.2806 2.78627 24.5384 2.93986 23.6942L2.97012 23.5669L4.0105 20.0297C2.9459 18.2693 2.33334 16.2045 2.33334 14C2.33334 7.55667 7.55668 2.33333 14 2.33333ZM14 4.66666C8.84535 4.66666 4.66668 8.84533 4.66668 14C4.66668 15.8397 5.19774 17.5518 6.11449 18.9954C6.34592 19.36 6.44437 19.8078 6.36595 20.252L6.32138 20.442L5.80612 22.1938L7.55799 21.6786C8.06255 21.5302 8.58801 21.621 9.00454 21.8855C10.4483 22.8023 12.1603 23.3333 14 23.3333C19.1547 23.3333 23.3333 19.1547 23.3333 14C23.3333 8.84533 19.1547 4.66666 14 4.66666ZM10.6186 8.38142C10.8704 8.2735 11.1754 8.29324 11.4165 8.46913C12.005 8.89842 12.4722 9.47421 12.8735 10.0373L13.2548 10.5904C13.3154 10.6799 13.3746 10.7675 13.4328 10.8527C13.6457 11.1641 13.6212 11.5779 13.3799 11.8603L13.2915 11.9492L12.2142 12.7493C12.1074 12.8287 12.0719 12.9727 12.1359 13.0894C12.3797 13.5331 12.814 14.1933 13.3109 14.6902C13.8083 15.1877 14.4998 15.65 14.9739 15.9211C15.0764 15.9798 15.2009 15.9613 15.2845 15.8849L15.3293 15.8324L16.0302 14.7647C16.2989 14.4072 16.8008 14.329 17.1656 14.5815L17.799 15.023C18.4283 15.4721 19.0342 15.955 19.5131 16.5683C19.7017 16.8099 19.7297 17.1257 19.6173 17.3882C19.1553 18.4663 17.9859 19.3845 16.7697 19.3397L16.5847 19.3291L16.3608 19.3069C16.3204 19.302 16.2785 19.2966 16.2351 19.2904L15.9578 19.2444C14.8801 19.0409 13.1514 18.4298 11.3613 16.6398C9.5713 14.8498 8.9602 13.121 8.7567 12.0433L8.71072 11.766L8.68148 11.5236L8.6655 11.3189C8.66374 11.288 8.6624 11.2589 8.66139 11.2314C8.61657 10.0134 9.5397 8.84379 10.6186 8.38142Z" fill="#22DD51"/>
</g>
<defs>
<clipPath id="clip0_34_1240">
<rect width="28" height="28" fill="white"/>
</clipPath>
</defs>
</svg>
