<svg width="32" height="32" viewBox="0 0 32 32" fill="none" xmlns="http://www.w3.org/2000/svg">
<path d="M16 0C24.8365 0 32 7.16344 32 16C32 24.8365 24.8365 32 16 32C13.1782 32 10.5233 31.2683 8.21907 29.9835L7.73074 29.6998L2.8796 31.1267C1.71098 31.4705 0.621153 30.4527 0.831794 29.2949L0.873296 29.1203L2.3001 24.2693C0.84008 21.855 0 19.0234 0 16C0 7.16344 7.16344 0 16 0ZM16 3.2C8.93075 3.2 3.2 8.93075 3.2 16C3.2 18.523 3.92832 20.871 5.18557 22.8509C5.50296 23.3508 5.63798 23.9649 5.53043 24.5742L5.46931 24.8347L4.76267 27.2373L7.16523 26.5307C7.8572 26.3272 8.57782 26.4517 9.14907 26.8144C11.129 28.0717 13.477 28.8 16 28.8C23.0693 28.8 28.8 23.0693 28.8 16C28.8 8.93075 23.0693 3.2 16 3.2ZM11.3626 8.29453C11.7079 8.14653 12.1262 8.1736 12.4569 8.41482C13.264 9.00355 13.9048 9.79321 14.4551 10.5655L14.978 11.3239C15.061 11.4467 15.1423 11.5669 15.2221 11.6836C15.5141 12.1107 15.4805 12.6782 15.1496 13.0655L15.0283 13.1875L13.5509 14.2848C13.4045 14.3936 13.3557 14.5912 13.4435 14.7512C13.7779 15.3597 14.3734 16.2651 15.0549 16.9466C15.7371 17.6288 16.6854 18.2629 17.3357 18.6347C17.4762 18.7151 17.647 18.6897 17.7617 18.5851L17.823 18.513L18.7843 17.0488C19.1528 16.5584 19.8411 16.4512 20.3414 16.7974L21.21 17.4029C22.0731 18.0189 22.904 18.6812 23.5608 19.5222C23.8195 19.8536 23.8579 20.2867 23.7037 20.6467C23.0701 22.1253 21.4664 23.3845 19.7984 23.323L19.5447 23.3084L19.2377 23.278C19.1822 23.2714 19.1247 23.2639 19.0652 23.2554L18.6849 23.1923C17.207 22.9133 14.8362 22.0752 12.3812 19.6203C9.92635 17.1654 9.08827 14.7945 8.80917 13.3166L8.74612 12.9363L8.70602 12.6039L8.6841 12.323C8.68169 12.2807 8.67985 12.2407 8.67846 12.2031C8.61699 10.5327 9.88301 8.92864 11.3626 8.29453Z" fill="#AC6BC3"/>
</svg>
